<?xml version="1.0" encoding="UTF-8" standalone="no"?>
<svg
   xmlns:dc="http://purl.org/dc/elements/1.1/"
   xmlns:cc="http://creativecommons.org/ns#"
   xmlns:rdf="http://www.w3.org/1999/02/22-rdf-syntax-ns#"
   xmlns:svg="http://www.w3.org/2000/svg"
   xmlns="http://www.w3.org/2000/svg"
   xmlns:xlink="http://www.w3.org/1999/xlink"
   xmlns:sodipodi="http://sodipodi.sourceforge.net/DTD/sodipodi-0.dtd"
   xmlns:inkscape="http://www.inkscape.org/namespaces/inkscape"
   viewBox="0 0 449.99999 134"
   version="1.1"
   id="svg3738"
   sodipodi:docname="МИИГАиК  в векторе OFFICIAL.svg"
   inkscape:version="1.0.2-2 (e86c870879, 2021-01-15)"
   width="450"
   height="134"
   inkscape:export-filename="G:\Рабочий стол\МИИГАиК  в векторе.png"
   inkscape:export-xdpi="1000"
   inkscape:export-ydpi="1000">
  <metadata
     id="metadata3742">
    <rdf:RDF>
      <cc:Work
         rdf:about="">
        <dc:format>image/svg+xml</dc:format>
        <dc:type
           rdf:resource="http://purl.org/dc/dcmitype/StillImage" />
        <dc:title></dc:title>
      </cc:Work>
    </rdf:RDF>
  </metadata>
  <sodipodi:namedview
     pagecolor="#ffffff"
     bordercolor="#666666"
     borderopacity="1"
     objecttolerance="10"
     gridtolerance="10"
     guidetolerance="10"
     inkscape:pageopacity="0"
     inkscape:pageshadow="2"
     inkscape:window-width="1920"
     inkscape:window-height="1129"
     id="namedview3740"
     showgrid="false"
     inkscape:zoom="2.8284271"
     inkscape:cx="209.2748"
     inkscape:cy="71.712805"
     inkscape:window-x="-8"
     inkscape:window-y="-8"
     inkscape:window-maximized="1"
     inkscape:current-layer="svg3738"
     inkscape:document-rotation="0" />
  <defs
     id="defs3594">
    <linearGradient
       inkscape:collect="always"
       id="linearGradient1206">
      <stop
         style="stop-color:#b80000;stop-opacity:1;"
         offset="0"
         id="stop1202" />
      <stop
         style="stop-color:#b80000;stop-opacity:0;"
         offset="1"
         id="stop1204" />
    </linearGradient>
    <style
       id="style3592">.cls-1{fill:#253373;}</style>
    <linearGradient
       inkscape:collect="always"
       xlink:href="#linearGradient1206"
       id="linearGradient4626"
       gradientUnits="userSpaceOnUse"
       gradientTransform="matrix(0.19480045,0,0,0.50299427,-150.10577,28.883644)"
       x1="0.54275048"
       y1="105.44227"
       x2="770.56158"
       y2="105.44227" />
    <linearGradient
       inkscape:collect="always"
       xlink:href="#linearGradient1206"
       id="linearGradient1208"
       x1="337.5"
       y1="81.9201"
       x2="450"
       y2="81.9201"
       gradientUnits="userSpaceOnUse"
       gradientTransform="matrix(1.3333333,0,0,1,-150,7.9345703e-4)" />
  </defs>
  <polygon
     class="cls-1"
     points="703.44,37.62 713.82,37.62 735.29,0 770.76,0 740.77,49.01 770.61,100.9 732.27,100.9 712.95,64.44 703.44,64.44 703.44,100.9 669.42,100.9 669.42,0 703.44,0 "
     id="polygon3596"
     style="fill:#000072;fill-opacity:1"
     transform="matrix(0.58383933,0,0,0.59011368,4.9081014e-7,13.683)" />
  <polygon
     class="cls-1"
     points="751.87,120.37 768.64,120.37 768.64,124.02 762.45,124.02 762.45,139.7 758.03,139.7 758.03,124.02 751.87,124.02 "
     id="polygon3598"
     style="fill:#000072;fill-opacity:1"
     transform="matrix(0.58383933,0,0,0.59011368,4.9081014e-7,19.584136)" />
  <polygon
     class="cls-1"
     points="739.72,128.16 748.7,128.16 748.7,131.64 739.72,131.64 739.72,136.11 750.24,136.11 750.24,139.71 735.27,139.71 735.27,120.37 749.89,120.37 749.89,123.95 739.72,123.95 "
     id="polygon3600"
     style="fill:#000072;fill-opacity:1"
     transform="matrix(0.58383933,0,0,0.59011368,4.9081014e-7,19.584136)" />
  <polygon
     class="cls-1"
     points="715.68,120.37 732.45,120.37 732.45,124.02 726.26,124.02 726.26,139.7 721.84,139.7 721.84,124.02 715.68,124.02 "
     id="polygon3602"
     style="fill:#000072;fill-opacity:1"
     transform="matrix(0.58383933,0,0,0.59011368,4.9081014e-7,19.584136)" />
  <polygon
     class="cls-1"
     points="712.86,139.7 708.45,139.7 708.45,127.14 699.22,139.7 694.99,139.7 694.99,120.37 699.44,120.37 699.44,132.97 708.66,120.37 712.86,120.37 "
     id="polygon3604"
     style="fill:#000072;fill-opacity:1"
     transform="matrix(0.58383933,0,0,0.59011368,4.9081014e-7,19.584136)" />
  <path
     class="cls-1"
     d="m 404.05769,92.439569 -1.68146,1.563806 a 3.6198038,3.6587048 0 0 0 -2.83746,-1.333659 3.7482485,3.7885298 0 0 0 -1.87413,0.466188 3.281177,3.3164388 0 0 0 -1.2786,1.292351 4.0401681,4.0835867 0 0 0 0,3.78263 3.281177,3.3164388 0 0 0 1.2786,1.292344 3.7540868,3.7944309 0 0 0 1.87413,0.472096 3.5906118,3.6291991 0 0 0 2.83746,-1.357262 l 1.68146,1.563797 a 5.2837459,5.3405288 0 0 1 -2.00258,1.5166 6.6032227,6.6741857 0 0 1 -2.6623,0.5252 6.4806165,6.5502618 0 0 1 -3.12355,-0.76125 5.5698271,5.6296845 0 0 1 -2.18939,-2.106706 6.042737,6.1076766 0 0 1 0,-6.078169 5.5931807,5.653289 0 0 1 2.18939,-2.100805 6.5273237,6.597471 0 0 1 3.13522,-0.778948 6.7141522,6.7863073 0 0 1 2.66231,0.519296 5.3713218,5.4290458 0 0 1 1.9909,1.498887"
     id="path3606"
     style="fill:#000072;fill-opacity:1;stroke-width:0.586968" />
  <path
     class="cls-1"
     d="m 391.56936,92.551696 a 4.2678655,4.313731 0 0 1 0,4.396343 3.7832788,3.8239367 0 0 1 -1.70481,1.433976 6.3872022,6.4558436 0 0 1 -2.59809,0.4957 h -2.27697 v 3.145305 h -2.6156 V 90.616119 h 4.89257 a 6.206212,6.2729084 0 0 1 2.59809,0.501601 3.9234003,3.9655639 0 0 1 1.70481,1.433976 m -2.04928,2.207023 a 1.8040635,1.8234513 0 0 0 -0.58384,-1.481184 2.7265296,2.7558309 0 0 0 -1.79238,-0.507502 h -2.12518 v 3.959669 h 2.12518 a 2.8024288,2.8325457 0 0 0 1.79238,-0.513403 1.751518,1.7703411 0 0 0 0.58384,-1.45758"
     id="path3608"
     style="fill:#000072;fill-opacity:1;stroke-width:0.586968" />
  <polygon
     class="cls-1"
     points="564.05,22.05 596.48,22.05 596.48,57.66 623.73,22.05 653.71,22.05 653.71,100.9 621.27,100.9 621.27,65.16 594.17,100.9 564.05,100.9 "
     id="polygon3610"
     style="fill:#000072;fill-opacity:1"
     transform="matrix(0.58383933,0,0,0.59011368,4.9081014e-7,13.683)" />
  <polygon
     class="cls-1"
     points="640.79,128.16 649.77,128.16 649.77,131.64 640.79,131.64 640.79,136.11 651.31,136.11 651.31,139.71 636.34,139.71 636.34,120.37 650.96,120.37 650.96,123.95 640.79,123.95 "
     id="polygon3612"
     style="fill:#000072;fill-opacity:1"
     transform="matrix(0.58383933,0,0,0.59011368,4.9081014e-7,19.584136)" />
  <path
     class="cls-1"
     d="m 369.45936,98.818704 a 2.7440448,2.7735343 0 0 1 -1.13848,2.360446 5.3771602,5.434947 0 0 1 -3.25198,0.84387 h -5.56399 V 90.616119 h 5.25455 a 5.3070995,5.3641334 0 0 1 3.071,0.767147 2.4521252,2.4784775 0 0 1 1.09178,2.183426 2.5864082,2.6142036 0 0 1 -0.42037,1.487085 2.8374591,2.8679525 0 0 1 -1.16768,1.020897 3.1352171,3.1689104 0 0 1 1.58221,1.009096 2.7090145,2.7381275 0 0 1 0.5488,1.734934 m -2.65062,-0.218344 c 0,-0.944185 -0.58385,-1.416273 -1.8391,-1.416273 h -2.86665 v 2.885653 h 2.86665 c 1.2319,0 1.8391,-0.48979 1.8391,-1.46938 m -0.98086,-3.605593 a 1.4128911,1.4280751 0 0 0 0.0351,-2.029993 l -0.0351,-0.03544 a 2.0084072,2.029991 0 0 0 -1.28444,-0.359969 h -2.43461 V 95.3429 h 2.43461 a 2.0667912,2.0890024 0 0 0 1.29028,-0.348167"
     id="path3614"
     style="fill:#000072;fill-opacity:1;stroke-width:0.586968" />
  <polygon
     class="cls-1"
     points="610.95,139.7 606.54,139.7 606.54,127.14 597.31,139.7 593.08,139.7 593.08,120.37 597.53,120.37 597.53,132.97 606.76,120.37 610.95,120.37 "
     id="polygon3616"
     style="fill:#000072;fill-opacity:1"
     transform="matrix(0.58383933,0,0,0.59011368,4.9081014e-7,19.584136)" />
  <polygon
     class="cls-1"
     points="592.9,172.85 592.9,160.28 583.67,172.85 579.44,172.85 579.44,153.52 583.89,153.52 583.89,166.12 593.12,153.52 597.33,153.52 597.33,172.85 "
     id="polygon3618"
     style="fill:#000072;fill-opacity:1"
     transform="matrix(0.58383933,0,0,0.59010296,4.9081014e-7,18.387392)" />
  <polygon
     class="cls-1"
     points="570.5,120.37 574.98,120.37 574.98,127.99 583.77,127.99 583.77,120.37 588.25,120.37 588.25,139.7 583.77,139.7 583.77,131.77 574.98,131.77 574.98,139.7 570.5,139.7 "
     id="polygon3620"
     style="fill:#000072;fill-opacity:1"
     transform="matrix(0.58383933,0,0,0.59011368,4.9081014e-7,19.584136)" />
  <polygon
     class="cls-1"
     points="570.22,172.85 570.22,160.28 561,172.85 556.77,172.85 556.77,153.52 561.22,153.52 561.22,166.12 570.45,153.52 574.64,153.52 574.64,172.85 "
     id="polygon3622"
     style="fill:#000072;fill-opacity:1"
     transform="matrix(0.58383933,0,0,0.59010296,4.9081014e-7,18.387392)" />
  <path
     class="cls-1"
     d="m 331.8426,90.616119 -4.805,9.028742 a 5.4005138,5.4585516 0 0 1 -1.66978,1.976879 3.7132181,3.753123 0 0 1 -2.11934,0.66683 4.86922,4.9215481 0 0 1 -1.83909,-0.38948 l 0.63055,-2.006379 a 4.0868753,4.1307958 0 0 0 1.1268,0.212439 1.6931341,1.7113297 0 0 0 0.86993,-0.236051 2.4462867,2.4725763 0 0 0 0.71228,-0.743542 l 0.0934,-0.129822 -4.44885,-8.379616 h 2.79075 l 3.00094,6.131286 3.09434,-6.131286 z"
     id="path3624"
     style="fill:#000072;fill-opacity:1;stroke-width:0.586968" />
  <path
     class="cls-1"
     d="m 298.844,13.683 25.77066,59.542472 h -20.55114 l -3.9701,-10.374201 H 277.72069 L 273.7681,73.225472 H 253.56726 L 279.32041,13.683 Z m -4.20365,34.704585 -5.72162,-14.971184 -5.72746,14.971184 z"
     id="path3626"
     style="fill:#000072;fill-opacity:1;stroke-width:0.586968" />
  <path
     class="cls-1"
     d="m 321.58454,111.11617 a 4.7933208,4.8447453 0 0 1 0.23353,6.8452 c -0.0759,0.0826 -0.15179,0.15932 -0.23353,0.23603 -1.01588,0.86156 -2.46964,1.34544 -4.37296,1.44576 v 1.23331 h -2.40541 v -1.25101 c -1.91499,-0.11212 -3.38044,-0.59011 -4.39632,-1.46346 a 4.7699672,4.8211411 0 0 1 -0.2744,-6.80388 c 0.0876,-0.0944 0.18099,-0.18884 0.2744,-0.27735 1.01588,-0.84975 2.48133,-1.33953 4.39632,-1.45755 V 108.443 h 2.40541 v 1.18022 c 1.90332,0.10621 3.35708,0.59009 4.37296,1.46935 m -1.82742,5.58237 a 2.5280243,2.5551458 0 0 0 0.84073,-2.06536 c 0,-1.7408 -1.13265,-2.70267 -3.38627,-2.8974 v 5.84791 a 4.5072396,4.5555948 0 0 0 2.54554,-0.88515 m -4.95095,0.88515 v -5.84791 a 4.5773003,4.6264071 0 0 0 -2.55722,0.87334 2.4813171,2.5079375 0 0 0 -0.82905,2.04177 c 0,1.7172 1.13265,2.69677 3.38627,2.9505"
     id="path3628"
     style="fill:#000072;fill-opacity:1;stroke-width:0.586963" />
  <polygon
     class="cls-1"
     points="538.3,139.7 533.88,139.7 533.88,127.14 524.65,139.7 520.42,139.7 520.42,120.37 524.87,120.37 524.87,132.97 534.1,120.37 538.3,120.37 "
     id="polygon3630"
     style="fill:#000072;fill-opacity:1"
     transform="matrix(0.58383933,0,0,0.59011368,4.9081014e-7,19.584136)" />
  <path
     class="cls-1"
     d="m 310.37455,87.388199 h 1.81015 a 2.2759538,2.2778388 0 0 1 -0.8019,1.852955 3.537752,3.5406821 0 0 1 -2.16981,0.637324 v -1.304153 a 1.3797233,1.380866 0 0 0 0.83137,-0.300952 1.1792507,1.1802274 0 0 0 0.35967,-0.885174"
     id="path3632"
     style="fill:#000072;fill-opacity:1;stroke-width:0.589869" />
  <path
     class="cls-1"
     d="m 309.21299,88.574325 v 1.304153 h -0.18684 c -2.06679,0 -3.10602,-0.837959 -3.12938,-2.49618 h 1.78656 c 0,0.79075 0.47291,1.180225 1.34282,1.180225 h 0.15764"
     id="path3634"
     style="fill:#000072;fill-opacity:1;stroke-width:0.586968" />
  <path
     class="cls-1"
     d="m 303.35124,108.98 5.05021,11.40668 h -2.73821 l -1.0042,-2.44302 h -5.25455 l -0.99837,2.44302 h -2.67399 L 300.75899,108.98 Z m 0.49043,6.95731 -1.79823,-4.36676 -1.78655,4.36676 z"
     id="path3636"
     style="fill:#000072;fill-opacity:1;stroke-width:0.586963" />
  <rect
     class="cls-1"
     x="298.44116"
     y="90.616119"
     width="2.5980849"
     height="11.406898"
     id="rect3638"
     style="fill:#000072;fill-opacity:1;stroke-width:0.586968" />
  <path
     class="cls-1"
     d="m 297.00491,98.069254 a 3.5789351,3.6173969 0 0 1 -1.21439,2.950576 5.2545539,5.3110231 0 0 1 -3.42713,1.01499 h -5.11444 V 90.616119 h 2.59808 v 3.747225 h 2.8725 a 4.8808967,4.9333503 0 0 1 3.17024,0.926474 3.3395609,3.3754502 0 0 1 1.10346,2.761733 m -2.63312,0.04722 c 0,-1.180225 -0.71228,-1.770341 -2.15437,-1.770341 h -2.33535 v 3.75313 h 2.33535 a 2.3353573,2.3604547 0 0 0 1.58805,-0.501598 1.8449322,1.8647592 0 0 0 0.58384,-1.469389"
     id="path3640"
     style="fill:#000072;fill-opacity:1;stroke-width:0.586968" />
  <path
     class="cls-1"
     d="m 295.25339,110.92143 a 4.3320877,4.3785639 0 0 1 0,4.39038 3.8124708,3.8533723 0 0 1 -1.70481,1.43395 6.2937879,6.3613098 0 0 1 -2.59809,0.49568 h -2.27697 v 3.14524 h -2.59225 V 108.98 h 4.88674 a 6.206212,6.2727944 0 0 1 2.59808,0.50158 3.8650163,3.9064815 0 0 1 1.70481,1.43985 m -2.04344,2.1952 a 1.8099019,1.8293192 0 0 0 -0.61887,-1.47527 2.7849136,2.8147912 0 0 0 -1.78654,-0.51339 h -2.13102 v 3.9655 h 2.13102 a 2.7557216,2.7852859 0 0 0 1.78654,-0.51929 1.751518,1.7703089 0 0 0 0.61887,-1.45755"
     id="path3642"
     style="fill:#000072;fill-opacity:1;stroke-width:0.586963" />
  <polygon
     class="cls-1"
     points="478.01,157.16 478.03,172.85 473.58,172.85 473.58,153.52 487.23,153.52 487.2,157.16 "
     id="polygon3644"
     style="fill:#000072;fill-opacity:1"
     transform="matrix(0.58383933,0,0,0.59010296,4.9081014e-7,18.387392)" />
  <polygon
     class="cls-1"
     points="469.45,120.37 473.93,120.37 473.93,127.99 482.71,127.99 482.71,120.37 487.19,120.37 487.19,139.7 482.71,139.7 482.71,131.77 473.93,131.77 473.93,139.7 469.45,139.7 "
     id="polygon3646"
     style="fill:#000072;fill-opacity:1"
     transform="matrix(0.58383933,0,0,0.59011368,4.9081014e-7,19.584136)" />
  <path
     class="cls-1"
     d="m 273.67469,111.65906 a 5.7624941,5.8243162 0 0 1 -1.92084,8.00771 c -0.0876,0.0531 -0.17515,0.10621 -0.26856,0.15342 a 7.0352639,7.1107407 0 0 1 -6.33466,0 5.6282111,5.6885925 0 0 1 -2.20691,-2.11257 5.984353,6.0485553 0 0 1 0,-6.04856 5.5756655,5.6354832 0 0 1 2.20691,-2.10666 6.9301727,7.004522 0 0 1 6.33466,0 5.6515647,5.7121966 0 0 1 2.20691,2.10666 m -1.83909,3.02134 a 3.7248949,3.7648569 0 0 0 -0.46124,-1.88833 3.2169547,3.2514673 0 0 0 -1.26692,-1.29234 3.7073797,3.7471538 0 0 0 -3.60814,0 3.2928538,3.3281807 0 0 0 -1.26692,1.29234 4.0401681,4.0835125 0 0 0 0,3.78255 3.3453993,3.38129 0 0 0 1.26692,1.29823 3.800794,3.8415703 0 0 0 3.60814,0 3.2695002,3.3045766 0 0 0 1.26692,-1.29823 3.7482485,3.788461 0 0 0 0.46124,-1.89422"
     id="path3648"
     style="fill:#000072;fill-opacity:1;stroke-width:0.586963" />
  <polygon
     class="cls-1"
     points="446.88,120.37 451.36,120.37 451.36,127.99 460.14,127.99 460.14,120.37 464.62,120.37 464.62,139.7 460.14,139.7 460.14,131.77 451.36,131.77 451.36,139.7 446.88,139.7 "
     id="polygon3650"
     style="fill:#000072;fill-opacity:1"
     transform="matrix(0.58383933,0,0,0.59011368,4.9081014e-7,19.584136)" />
  <polygon
     class="cls-1"
     points="451.75,0 451.75,26.37 408.37,26.37 408.37,100.9 374.93,100.9 374.93,0 "
     id="polygon3652"
     style="fill:#000072;fill-opacity:1"
     transform="matrix(0.58383933,0,0,0.59011368,4.9081014e-7,13.683)" />
  <polygon
     class="cls-1"
     points="447.78,153.52 447.78,157.16 441.6,157.16 441.6,172.85 437.17,172.85 437.17,157.16 431.01,157.16 431.01,153.52 "
     id="polygon3654"
     style="fill:#000072;fill-opacity:1"
     transform="matrix(0.58383933,0,0,0.59010296,4.9081014e-7,18.387392)" />
  <polygon
     class="cls-1"
     points="432.74,128.16 441.72,128.16 441.72,131.64 432.74,131.64 432.74,136.11 443.27,136.11 443.27,139.71 428.29,139.71 428.29,120.37 442.91,120.37 442.91,123.95 432.74,123.95 "
     id="polygon3656"
     style="fill:#000072;fill-opacity:1"
     transform="matrix(0.58383933,0,0,0.59011368,4.9081014e-7,19.584136)" />
  <path
     class="cls-1"
     d="m 250.78818,110.92143 a 4.3320877,4.3785639 0 0 1 0,4.39038 3.8124708,3.8533723 0 0 1 -1.70481,1.43395 6.2937879,6.3613098 0 0 1 -2.59808,0.49568 h -2.28281 v 3.14524 h -2.60976 V 108.98 h 4.89257 a 6.206212,6.2727944 0 0 1 2.59808,0.50158 3.8650163,3.9064815 0 0 1 1.70481,1.43985 m -2.07263,2.1952 a 1.7923867,1.8116161 0 0 0 -0.58384,-1.49297 2.7849136,2.8147912 0 0 0 -1.78655,-0.51339 h -2.13685 v 3.96549 h 2.13685 a 2.7440448,2.7734839 0 0 0 1.78655,-0.50158 1.751518,1.7703089 0 0 0 0.61304,-1.45755"
     id="path3658"
     style="fill:#000072;fill-opacity:1;stroke-width:0.586963" />
  <path
     class="cls-1"
     d="m 247.98576,98.818704 a 2.7440448,2.7735343 0 0 1 -1.13265,2.360446 5.3771602,5.434947 0 0 1 -3.25199,0.84387 h -5.56399 V 90.616119 h 5.25455 a 5.3538066,5.4113424 0 0 1 3.071,0.767147 2.4929939,2.5197854 0 0 1 1.09178,2.183426 2.5864082,2.6142036 0 0 1 -0.42036,1.487085 2.8374591,2.8679525 0 0 1 -1.16768,1.020897 3.117702,3.151207 0 0 1 1.57636,1.009096 2.7090145,2.7381275 0 0 1 0.54881,1.734934 M 245.3468,98.60036 c 0,-0.944185 -0.58384,-1.416273 -1.83909,-1.416273 h -2.86665 v 2.885653 h 2.86665 c 1.2319,0 1.83909,-0.48979 1.83909,-1.46938 m -0.98085,-3.605593 a 1.4128911,1.4280751 0 0 0 0.0351,-2.029993 l -0.0351,-0.03544 a 2.0084072,2.029991 0 0 0 -1.28444,-0.359969 H 240.6469 V 95.3429 h 2.43461 a 2.0667912,2.0890024 0 0 0 1.29028,-0.348167"
     id="path3660"
     style="fill:#000072;fill-opacity:1;stroke-width:0.586968" />
  <path
     class="cls-1"
     d="m 235.04204,108.98 5.05021,11.40668 h -2.73821 l -0.99836,-2.44302 h -5.25456 l -1.0042,2.44302 h -2.39958 l -0.16348,-0.25373 4.92177,-11.15295 z m 0.49042,6.95731 -1.79238,-4.36676 -1.79239,4.36676 z"
     id="path3662"
     style="fill:#000072;fill-opacity:1;stroke-width:0.586963" />
  <polygon
     class="cls-1"
     points="388.13,120.37 404.9,120.37 404.9,124.02 398.71,124.02 398.71,139.7 394.28,139.7 394.28,124.02 388.13,124.02 "
     id="polygon3664"
     style="fill:#000072;fill-opacity:1"
     transform="matrix(0.58383933,0,0,0.59011368,4.9081014e-7,19.584136)" />
  <polygon
     class="cls-1"
     points="389.55,172.85 389.74,172.42 390.02,172.85 "
     id="polygon3666"
     style="fill:#000072;fill-opacity:1"
     transform="matrix(0.58383933,0,0,0.59010296,4.9081014e-7,18.387392)" />
  <polygon
     class="cls-1"
     points="384.93,172.85 379.9,165.06 376.81,165.06 376.81,172.85 372.36,172.85 372.36,153.52 376.81,153.52 376.81,161.34 380.02,161.34 385.1,153.52 389.83,153.52 383.5,162.85 389.74,172.42 389.55,172.85 "
     id="polygon3668"
     style="fill:#000072;fill-opacity:1"
     transform="matrix(0.58383933,0,0,0.59010296,4.9081014e-7,18.387392)" />
  <path
     class="cls-1"
     d="m 226.16768,92.439569 -1.67562,1.563806 a 3.6198038,3.6587048 0 0 0 -2.83746,-1.333659 3.7482485,3.7885298 0 0 0 -1.87412,0.466188 3.2986921,3.3341423 0 0 0 -1.28445,1.292351 4.0868753,4.1307958 0 0 0 0,3.78263 3.2986921,3.3341423 0 0 0 1.28445,1.292344 3.7540868,3.7944309 0 0 0 1.87412,0.472096 3.5906118,3.6291991 0 0 0 2.83746,-1.357262 l 1.67562,1.563797 a 5.1844932,5.2402095 0 0 1 -2.00257,1.5166 6.6032227,6.6741857 0 0 1 -2.66231,0.5252 6.4222325,6.4912504 0 0 1 -3.1177,-0.76125 5.581504,5.6414868 0 0 1 -2.19523,-2.106706 6.1011209,6.1666879 0 0 1 0,-6.078169 5.5698271,5.6296845 0 0 1 2.19523,-2.100805 6.5039701,6.5738664 0 0 1 3.13522,-0.755344 6.6849603,6.7568016 0 0 1 2.65647,0.519296 5.3070995,5.3641334 0 0 1 1.99089,1.498887"
     id="path3670"
     style="fill:#000072;fill-opacity:1;stroke-width:0.586968" />
  <path
     class="cls-1"
     d="m 213.68519,92.551696 a 4.2970574,4.3432366 0 0 1 0,4.396343 3.8124708,3.8534423 0 0 1 -1.70481,1.433976 6.3229799,6.3909312 0 0 1 -2.60392,0.4957 h -2.27114 v 3.145305 h -2.61559 V 90.616119 h 4.88673 a 6.2295656,6.296513 0 0 1 2.60392,0.501601 3.993461,4.0363776 0 0 1 1.70481,1.433976 m -2.04927,2.207023 a 1.7982251,1.8175501 0 0 0 -0.61303,-1.481184 2.7265296,2.7558309 0 0 0 -1.79239,-0.507502 h -2.12518 v 3.959669 h 2.12518 a 2.8024288,2.8325457 0 0 0 1.79239,-0.513403 1.7923867,1.811649 0 0 0 0.61303,-1.45758"
     id="path3672"
     style="fill:#000072;fill-opacity:1;stroke-width:0.586968" />
  <polygon
     class="cls-1"
     points="355.37,172.85 355.37,160.28 346.15,172.85 341.92,172.85 341.92,153.52 346.37,153.52 346.37,166.12 355.6,153.52 359.79,153.52 359.79,172.85 "
     id="polygon3674"
     style="fill:#000072;fill-opacity:1"
     transform="matrix(0.58383933,0,0,0.59010296,4.9081014e-7,18.387392)" />
  <polygon
     class="cls-1"
     points="290.31,52.47 299.11,39.17 325.92,0 357.05,0 357.05,100.9 323.61,100.9 323.61,48.58 289.02,100.9 257.15,100.9 256.87,100.9 256.87,0 290.31,0 290.31,52.03 "
     id="polygon3676"
     style="fill:#000072;fill-opacity:1"
     transform="matrix(0.58383933,0,0,0.59011368,4.9081014e-7,13.683)" />
  <path
     class="cls-1"
     d="m 197.92153,90.616119 5.04438,11.406901 h -2.70902 l -1.0042,-2.44307 h -5.25456 l -0.99836,2.44307 h -2.66815 l 5.02686,-11.406901 z m 0.48459,6.963343 -1.79823,-4.372739 -1.78654,4.372739 z"
     id="path3678"
     style="fill:#000072;fill-opacity:1;stroke-width:0.586968" />
  <polygon
     class="cls-1"
     points="324.88,172.85 324.88,160.28 315.65,172.85 311.42,172.85 311.42,153.52 315.88,153.52 315.88,166.12 325.1,153.52 329.3,153.52 329.3,172.85 "
     id="polygon3680"
     style="fill:#000072;fill-opacity:1"
     transform="matrix(0.58383933,0,0,0.59010296,4.9081014e-7,18.387392)" />
  <path
     class="cls-1"
     d="m 189.74779,99.875008 v 4.514362 h -2.42294 v -2.36045 h -7.96357 v 2.36045 h -2.42293 v -4.514362 h 0.45539 c 0.67726,0 1.16768,-0.525205 1.43041,-1.504795 a 17.982251,18.175501 0 0 0 0.51962,-4.183907 l 0.12844,-3.540682 h 8.67585 v 9.258889 z m -4.16278,0 v -7.116777 h -3.87086 l -0.0467,1.658222 a 24.205978,24.466113 0 0 1 -0.33863,3.410859 4.5130779,4.5615787 0 0 1 -0.79402,2.035886 z"
     id="path3682"
     style="fill:#000072;fill-opacity:1;stroke-width:0.586968" />
  <polygon
     class="cls-1"
     points="302.2,172.85 302.2,160.28 292.97,172.85 288.75,172.85 288.75,153.52 293.19,153.52 293.19,166.12 302.42,153.52 306.62,153.52 306.62,172.85 "
     id="polygon3684"
     style="fill:#000072;fill-opacity:1"
     transform="matrix(0.58383933,0,0,0.59010296,4.9081014e-7,18.387392)" />
  <path
     class="cls-1"
     d="m 177.0376,90.616119 -4.805,9.028742 a 5.4005138,5.4585516 0 0 1 -1.66978,1.976879 3.7132181,3.753123 0 0 1 -2.11934,0.66683 4.86922,4.9215481 0 0 1 -1.83909,-0.38948 l 0.62471,-2.006379 a 4.1744511,4.2193128 0 0 0 1.13265,0.212439 1.6931341,1.7113297 0 0 0 0.86992,-0.236051 2.4462867,2.4725763 0 0 0 0.71229,-0.743542 l 0.0934,-0.129822 -4.44886,-8.379616 h 2.79075 l 2.9951,6.131286 3.10019,-6.131286 z"
     id="path3686"
     style="fill:#000072;fill-opacity:1;stroke-width:0.586968" />
  <path
     class="cls-1"
     d="m 165.95633,115.50653 a 2.7382064,2.7675828 0 0 1 -0.11677,3.49932 4.2970574,4.3431577 0 0 1 -1.83325,1.18021 7.4147593,7.4943074 0 0 1 -2.52219,0.41307 9.5516116,9.6540847 0 0 1 -2.33535,-0.29506 8.4539934,8.5446908 0 0 1 -2.18357,-0.89696 l 0.80571,-1.89422 a 5.9318075,5.995446 0 0 0 1.63474,0.69632 6.8425968,6.9160066 0 0 0 1.75152,0.23604 4.0284913,4.0717104 0 0 0 1.93251,-0.42487 1.2961233,1.3100286 0 0 0 0.76483,-1.18021 1.0625875,1.0739874 0 0 0 -0.52545,-0.95597 2.6973376,2.7262757 0 0 0 -1.42458,-0.33045 h -2.76155 v -1.98865 h 2.58057 a 2.0959832,2.1184696 0 0 0 1.23774,-0.32456 1.0450724,1.0562843 0 0 0 0.43788,-0.89696 1.1676787,1.180206 0 0 0 -0.63639,-1.04448 3.1936011,3.2278632 0 0 0 -1.63475,-0.37767 6.4806165,6.5501428 0 0 0 -1.5355,0.20654 6.2529192,6.3200027 0 0 0 -1.50046,0.59011 l -0.79403,-2.05356 a 8.2846799,8.3735609 0 0 1 3.87669,-0.93237 7.5490424,7.6300312 0 0 1 2.44045,0.39538 4.0868753,4.1307207 0 0 1 1.75152,1.13889 2.5221859,2.5492448 0 0 1 0.65974,1.77031 2.405418,2.4312242 0 0 1 -0.43788,1.45756 2.7206912,2.7498797 0 0 1 -1.16767,0.97366 3.2052779,3.2396652 0 0 1 1.53549,1.06809"
     id="path3688"
     style="fill:#000072;fill-opacity:1;stroke-width:0.586963" />
  <path
     class="cls-1"
     d="m 165.36081,92.439569 -1.67561,1.563806 a 3.6198038,3.6587048 0 0 0 -2.83747,-1.333659 3.7482485,3.7885298 0 0 0 -1.87412,0.466188 3.2578235,3.2928344 0 0 0 -1.28445,1.292351 4.0401681,4.0835867 0 0 0 0,3.78263 3.2578235,3.2928344 0 0 0 1.28445,1.292344 3.7540868,3.7944309 0 0 0 1.87412,0.472096 3.5906118,3.6291991 0 0 0 2.83747,-1.357262 l 1.67561,1.563797 a 5.2545539,5.3110231 0 0 1 -1.99672,1.5166 6.6207379,6.6918891 0 0 1 -2.66231,0.5252 6.4806165,6.5502618 0 0 1 -3.12354,-0.76125 5.4880897,5.5470686 0 0 1 -2.1894,-2.106706 6.013545,6.0781709 0 0 1 0,-6.078169 5.4764128,5.5352663 0 0 1 2.1894,-2.100805 6.5039701,6.5738664 0 0 1 3.13521,-0.755344 6.6849603,6.7568016 0 0 1 2.65647,0.519296 5.3713218,5.4290458 0 0 1 1.99089,1.498887"
     id="path3690"
     style="fill:#000072;fill-opacity:1;stroke-width:0.586968" />
  <polygon
     class="cls-1"
     points="265.45,161.31 265.45,164.79 256.48,164.79 256.48,169.26 267,169.26 267,172.85 252.03,172.85 252.03,153.52 266.65,153.52 266.65,157.11 256.48,157.11 256.48,161.31 "
     id="polygon3692"
     style="fill:#000072;fill-opacity:1"
     transform="matrix(0.58383933,0,0,0.59010296,4.9081014e-7,18.387392)" />
  <path
     class="cls-1"
     d="m 152.53387,93.295238 a 5.9609995,6.0250607 0 0 1 0,6.048664 5.6924334,5.7536084 0 0 1 -2.20108,2.112608 7.0060719,7.0813641 0 0 1 -6.33466,0 5.6048575,5.6650913 0 0 1 -2.21274,-2.112608 5.984353,6.0486652 0 0 1 0,-6.048664 5.6048575,5.6650913 0 0 1 2.21274,-2.112607 7.0352639,7.1108699 0 0 1 6.33466,0 5.6924334,5.7536084 0 0 1 2.20108,2.112607 m -1.8391,3.003675 a 3.7832788,3.8239367 0 0 0 -0.45539,-1.888361 3.3453993,3.3813514 0 0 0 -1.26694,-1.298253 3.8124708,3.8534423 0 0 0 -3.61396,0 3.3453993,3.3813514 0 0 0 -1.26693,1.298253 4.0401681,4.0835867 0 0 0 0,3.78263 3.2928538,3.3282412 0 0 0 1.28444,1.292344 3.7190565,3.7590241 0 0 0 3.61397,0 3.2928538,3.3282412 0 0 0 1.26693,-1.292344 3.7424101,3.7826287 0 0 0 0.45539,-1.894269"
     id="path3694"
     style="fill:#000072;fill-opacity:1;stroke-width:0.586968" />
  <path
     class="cls-1"
     d="m 145.37599,118.23871 v 4.51429 h -2.41709 v -2.36041 h -7.96357 v 2.36041 h -2.41709 v -4.51429 h 0.44955 c 0.67725,0 1.16768,-0.51928 1.43625,-1.49886 a 18.028958,18.222379 0 0 0 0.51378,-4.18972 l 0.13428,-3.54062 h 8.67585 v 9.25871 z m -4.15693,0 v -7.11074 h -3.87086 l -0.0525,1.6641 a 23.429472,23.680832 0 0 1 -0.33863,3.41669 4.4196637,4.4670794 0 0 1 -0.78819,2.02995 z"
     id="path3696"
     style="fill:#000072;fill-opacity:1;stroke-width:0.586963" />
  <polygon
     class="cls-1"
     points="242.04,124.02 232.84,124.02 232.87,139.7 228.42,139.7 228.42,120.37 242.07,120.37 "
     id="polygon3698"
     style="fill:#000072;fill-opacity:1"
     transform="matrix(0.58383933,0,0,0.59011368,4.9081014e-7,19.584136)" />
  <polygon
     class="cls-1"
     points="138.81,0 172.25,0 172.25,52.47 207,0 238.99,0 238.99,100.9 205.55,100.9 205.55,48.58 170.96,100.9 138.81,100.9 "
     id="polygon3700"
     style="fill:#000072;fill-opacity:1"
     transform="matrix(0.58383933,0,0,0.59011368,4.9081014e-7,13.683)" />
  <path
     class="cls-1"
     d="m 131.24124,111.65906 a 5.7624941,5.8243162 0 0 1 -1.9325,8.00181 l -0.28025,0.15932 a 7.0352639,7.1107407 0 0 1 -6.33465,0 5.6282111,5.6885925 0 0 1 -2.20692,-2.11257 5.984353,6.0485553 0 0 1 0,-6.04856 5.5756655,5.6354832 0 0 1 2.20692,-2.10666 6.9301727,7.004522 0 0 1 6.33465,0 5.6515647,5.7121966 0 0 1 2.20691,2.10666 m -1.83909,3.02134 a 3.7832788,3.8238672 0 0 0 -0.45539,-1.88833 3.3745913,3.410795 0 0 0 -1.26693,-1.29234 3.7307333,3.7707579 0 0 0 -3.61397,0 3.2695002,3.3045766 0 0 0 -1.27277,1.29234 4.0868753,4.1307207 0 0 0 0,3.78255 3.3629145,3.398993 0 0 0 1.27277,1.29823 3.5439047,3.5819249 0 0 0 1.80407,0.46028 3.6431573,3.6822424 0 0 0 1.8099,-0.46028 3.4271368,3.4639044 0 0 0 1.26693,-1.29823 3.8183092,3.8592734 0 0 0 0.45539,-1.89422"
     id="path3702"
     style="fill:#000072;fill-opacity:1;stroke-width:0.586963" />
  <polygon
     class="cls-1"
     points="215.79,139.7 211.38,139.7 211.38,127.14 202.15,139.7 197.92,139.7 197.92,120.37 202.37,120.37 202.37,132.97 211.6,120.37 215.79,120.37 "
     id="polygon3704"
     style="fill:#000072;fill-opacity:1"
     transform="matrix(0.58383933,0,0,0.59011368,4.9081014e-7,19.584136)" />
  <path
     class="cls-1"
     d="m 122.08053,87.388199 h 1.81015 a 2.2700546,2.2719376 0 0 1 -0.796,1.852955 3.5377474,3.5406821 0 0 1 -2.17571,0.637324 v -1.304153 a 1.3856177,1.3867671 0 0 0 0.83727,-0.300952 1.1379754,1.1389194 0 0 0 0.35377,-0.885174"
     id="path3706"
     style="fill:#000072;fill-opacity:1;stroke-width:0.589869" />
  <path
     class="cls-1"
     d="m 120.91897,88.574325 v 1.304153 h -0.181 c -2.06679,0 -3.11186,-0.837959 -3.12937,-2.49618 h 1.78654 c 0,0.79075 0.46708,1.180225 1.34283,1.180225 h 0.15181"
     id="path3708"
     style="fill:#000072;fill-opacity:1;stroke-width:0.586968" />
  <polygon
     class="cls-1"
     points="201.25,161.31 201.25,164.79 192.27,164.79 192.27,169.26 202.8,169.26 202.8,172.85 187.82,172.85 187.82,153.52 202.44,153.52 202.44,157.11 192.27,157.11 192.27,161.31 "
     id="polygon3710"
     style="fill:#000072;fill-opacity:1"
     transform="matrix(0.58383933,0,0,0.59010296,4.9081014e-7,18.387392)" />
  <polygon
     class="cls-1"
     points="193.11,139.7 188.69,139.7 188.69,127.14 179.47,139.7 175.24,139.7 175.24,120.37 179.68,120.37 179.68,132.97 188.91,120.37 193.11,120.37 "
     id="polygon3712"
     style="fill:#000072;fill-opacity:1"
     transform="matrix(0.58383933,0,0,0.59011368,4.9081014e-7,19.584136)" />
  <polygon
     class="cls-1"
     points="175.87,157.16 175.89,172.85 171.44,172.85 171.44,153.52 185.09,153.52 185.06,157.16 "
     id="polygon3714"
     style="fill:#000072;fill-opacity:1"
     transform="matrix(0.58383933,0,0,0.59010296,4.9081014e-7,18.387392)" />
  <polygon
     class="cls-1"
     points="159.93,139.7 155.49,139.7 155.49,120.37 159.93,120.37 159.93,128.18 163.14,128.18 168.22,120.37 172.95,120.37 166.62,129.71 173.15,139.7 168.06,139.7 163.03,131.92 159.93,131.92 "
     id="polygon3716"
     style="fill:#000072;fill-opacity:1"
     transform="matrix(0.58383933,0,0,0.59011368,4.9081014e-7,19.584136)" />
  <path
     class="cls-1"
     d="M 89.105559,92.439569 87.4241,94.003375 a 3.6198038,3.6587048 0 0 0 -2.837458,-1.333659 3.7248949,3.7649253 0 0 0 -1.868283,0.466188 3.1877627,3.2220207 0 0 0 -1.284448,1.292351 4.0868753,4.1307958 0 0 0 0,3.78263 3.1877627,3.2220207 0 0 0 1.284448,1.292344 3.7307333,3.7708264 0 0 0 1.868283,0.472096 3.5906118,3.6291991 0 0 0 2.837458,-1.357262 l 1.681459,1.563797 a 5.2545539,5.3110231 0 0 1 -2.002571,1.5166 6.6032227,6.6741857 0 0 1 -2.662302,0.5252 6.4806165,6.5502618 0 0 1 -3.123541,-0.76125 5.5698271,5.6296845 0 0 1 -2.189402,-2.106706 6.042737,6.1076766 0 0 1 0,-6.078169 5.5931807,5.653289 0 0 1 2.189402,-2.100805 6.5390004,6.6092732 0 0 1 3.141056,-0.755344 6.6849603,6.7568016 0 0 1 2.656464,0.519296 5.3713218,5.4290458 0 0 1 1.990894,1.498887"
     id="path3718"
     style="fill:#000072;fill-opacity:1;stroke-width:0.586968" />
  <path
     class="cls-1"
     d="m 77.066797,98.818704 a 2.7440448,2.7735343 0 0 1 -1.138492,2.360446 5.3771602,5.434947 0 0 1 -3.251983,0.84387 h -5.59318 V 90.616119 h 5.254553 a 5.3362914,5.393639 0 0 1 3.065158,0.767147 2.4696403,2.4961809 0 0 1 1.097617,2.183426 2.5864082,2.6142036 0 0 1 -0.420363,1.487085 2.8724895,2.9033593 0 0 1 -1.167683,1.020897 3.0359645,3.0685911 0 0 1 1.582207,1.009096 2.7090145,2.7381275 0 0 1 0.548805,1.734934 M 74.398648,98.60036 c 0,-0.944185 -0.583841,-1.416273 -1.844937,-1.416273 H 69.6929 v 2.885653 h 2.860811 c 1.231904,0 1.844937,-0.48979 1.844937,-1.46938 M 73.417797,94.994767 A 1.2552546,1.2687444 0 0 0 73.849836,93.956166 1.2085474,1.2215353 0 0 0 73.40612,92.929368 2.0084072,2.029991 0 0 0 72.121672,92.569399 H 69.6929 v 2.773535 h 2.428772 a 2.0901448,2.112607 0 0 0 1.296125,-0.348167"
     id="path3720"
     style="fill:#000072;fill-opacity:1;stroke-width:0.586968" />
  <polygon
     class="cls-1"
     points="27.96,0 60.83,53.77 92.83,0 120.8,0 121.08,100.9 90.09,100.9 89.8,54.92 67.89,91.82 52.9,91.82 30.99,56.5 30.99,100.9 0,100.9 0,0 "
     id="polygon3722"
     style="fill:#000072;fill-opacity:1"
     transform="matrix(0.58383933,0,0,0.59011368,4.9081014e-7,13.683)" />
  <path
     class="cls-1"
     d="m 64.263191,93.295238 a 5.9609995,6.0250607 0 0 1 0,6.048664 5.7508173,5.8126197 0 0 1 -2.20691,2.112608 7.0060719,7.0813641 0 0 1 -6.334657,0 5.6282111,5.6886959 0 0 1 -2.20691,-2.112608 5.984353,6.0486652 0 0 1 0,-6.048664 5.5873423,5.6473879 0 0 1 2.20691,-2.112607 7.0352639,7.1108699 0 0 1 6.334657,0 5.7099486,5.7713118 0 0 1 2.20691,2.112607 M 62.4241,96.298913 a 3.7248949,3.7649253 0 0 0 -0.461231,-1.888361 3.3453993,3.3813514 0 0 0 -1.266934,-1.298253 3.800794,3.8416401 0 0 0 -3.608126,0 3.3220457,3.3577468 0 0 0 -1.272773,1.298253 4.0868753,4.1307958 0 0 0 0,3.78263 3.2695002,3.3046366 0 0 0 1.272773,1.292344 3.7073797,3.7472219 0 0 0 3.608126,0 3.251985,3.2869332 0 0 0 1.266934,-1.292344 3.7482485,3.7885298 0 0 0 0.461231,-1.894269"
     id="path3724"
     style="fill:#000072;fill-opacity:1;stroke-width:0.586968" />
  <polygon
     class="cls-1"
     points="76.42,139.7 71.97,139.7 71.97,120.37 76.42,120.37 76.42,128.18 79.63,128.18 84.71,120.37 89.44,120.37 83.11,129.71 89.63,139.7 84.54,139.7 79.51,131.92 76.42,131.92 "
     id="polygon3726"
     style="fill:#000072;fill-opacity:1"
     transform="matrix(0.58383933,0,0,0.59011368,4.9081014e-7,19.584136)" />
  <path
     class="cls-1"
     d="m 40.3433,92.439569 -1.67562,1.563806 a 3.6198038,3.6587048 0 0 0 -2.837458,-1.333659 3.7482485,3.7885298 0 0 0 -1.874129,0.466188 3.2986921,3.3341423 0 0 0 -1.284441,1.292351 4.0868753,4.1307958 0 0 0 0,3.78263 3.2986921,3.3341423 0 0 0 1.284441,1.292344 3.7540868,3.7944309 0 0 0 1.874129,0.472096 3.5906118,3.6291991 0 0 0 2.837458,-1.357262 l 1.67562,1.563797 a 5.166978,5.222506 0 0 1 -1.996732,1.5166 6.6207379,6.6918891 0 0 1 -2.66231,0.5252 6.4222325,6.4912504 0 0 1 -3.117702,-0.76125 5.5347968,5.5942777 0 0 1 -2.206911,-2.106706 6.042737,6.1076766 0 0 1 0,-6.078169 5.5289584,5.5883766 0 0 1 2.195234,-2.100805 6.5039701,6.5738664 0 0 1 3.146894,-0.778948 6.6616067,6.7331971 0 0 1 2.650633,0.519296 5.2545539,5.3110231 0 0 1 1.990894,1.498887"
     id="path3728"
     style="fill:#000072;fill-opacity:1;stroke-width:0.586968" />
  <path
     class="cls-1"
     d="m 27.522187,93.295238 a 5.7624941,5.824422 0 0 1 -1.932511,8.001942 l -0.274406,0.15933 a 7.0060719,7.0813641 0 0 1 -6.334655,0 5.6282111,5.6886959 0 0 1 -2.20691,-2.112608 5.984353,6.0486652 0 0 1 0,-6.048664 5.5873423,5.6473879 0 0 1 2.20691,-2.112607 7.0352639,7.1108699 0 0 1 6.334655,0 5.7099486,5.7713118 0 0 1 2.206917,2.112607 m -1.833253,3.003675 a 3.7248949,3.7649253 0 0 0 -0.461238,-1.888361 3.2695002,3.3046366 0 0 0 -1.290287,-1.298253 3.800794,3.8416401 0 0 0 -3.608124,0 3.3453993,3.3813514 0 0 0 -1.266934,1.298253 4.0868753,4.1307958 0 0 0 0,3.78263 3.2928538,3.3282412 0 0 0 1.266934,1.292344 3.7073797,3.7472219 0 0 0 3.608124,0 3.2169547,3.2515264 0 0 0 1.266934,-1.292344 3.7482485,3.7885298 0 0 0 0.484591,-1.894269"
     id="path3730"
     style="fill:#000072;fill-opacity:1;stroke-width:0.586968" />
  <polygon
     class="cls-1"
     points="12,137.66 6.31,128.35 6.31,139.7 2.11,139.7 2.11,120.37 5.81,120.37 13.05,132.39 20.18,120.37 23.88,120.37 23.91,139.7 19.7,139.7 19.68,128.13 13.99,137.66 "
     id="polygon3732"
     style="fill:#000072;fill-opacity:1"
     transform="matrix(0.58383933,0,0,0.59011368,4.9081014e-7,19.584136)" />
  <rect
     style="fill:url(#linearGradient4626);fill-opacity:1;stroke:none;stroke-width:0.30103"
     id="rect4587-8"
     width="150"
     height="3.4782"
     x="-150"
     y="80.181396"
     transform="scale(-1,1)" />
  <rect
     style="fill:url(#linearGradient1208);fill-opacity:1;stroke:none;stroke-width:0.30103"
     id="rect4587-8-4"
     width="150"
     height="3.4782"
     x="300"
     y="80.181793" />
  <rect
     style="fill:#b80000;fill-opacity:1;stroke:none;stroke-width:0.301539"
     id="rect4587-8-4-8"
     width="150.49167"
     height="3.4785967"
     x="149.72931"
     y="80.181396" />
</svg>
